<svg width="32" height="25" viewBox="0 0 32 25" fill="none" xmlns="http://www.w3.org/2000/svg">
<path d="M8.64232 11.9715C10.1933 11.9715 11.3263 11.5975 12.0413 10.8495C12.7673 10.1015 13.1303 9.0785 13.1303 7.7805C13.1303 7.1865 13.0368 6.6475 12.8498 6.1635C12.6738 5.6685 12.3988 5.2505 12.0248 4.9095C11.6618 4.5575 11.1998 4.288 10.6388 4.101C10.0778 3.914 9.41232 3.8205 8.64232 3.8205H5.50732V11.9715H8.64232ZM8.64232 0.0584984C10.2813 0.0584984 11.6948 0.250999 12.8828 0.636C14.0818 1.021 15.0663 1.56 15.8363 2.253C16.6063 2.935 17.1728 3.749 17.5358 4.695C17.9098 5.641 18.0968 6.6695 18.0968 7.7805C18.0968 8.9575 17.9043 10.0355 17.5193 11.0145C17.1343 11.9935 16.5513 12.835 15.7703 13.539C14.9893 14.243 14.0048 14.793 12.8168 15.189C11.6288 15.574 10.2373 15.7665 8.64232 15.7665H5.50732V24H0.557317V0.0584984H8.64232ZM30.8096 10.4865C30.6886 10.6735 30.5621 10.811 30.4301 10.899C30.3091 10.976 30.1386 11.0145 29.9186 11.0145C29.6986 11.0145 29.4731 10.9595 29.2421 10.8495C29.0111 10.7395 28.7526 10.624 28.4666 10.503C28.1806 10.371 27.8506 10.25 27.4766 10.14C27.1136 10.03 26.6901 9.975 26.2061 9.975C25.4691 9.975 24.8971 10.129 24.4901 10.437C24.0831 10.734 23.8796 11.13 23.8796 11.625C23.8796 11.966 23.9951 12.252 24.2261 12.483C24.4571 12.714 24.7596 12.9175 25.1336 13.0935C25.5186 13.2585 25.9531 13.418 26.4371 13.572C26.9211 13.715 27.4161 13.8745 27.9221 14.0505C28.4391 14.2265 28.9396 14.43 29.4236 14.661C29.9076 14.892 30.3366 15.1835 30.7106 15.5355C31.0956 15.8765 31.4036 16.2945 31.6346 16.7895C31.8656 17.2735 31.9811 17.862 31.9811 18.555C31.9811 19.38 31.8271 20.1445 31.5191 20.8485C31.2221 21.5415 30.7821 22.141 30.1991 22.647C29.6161 23.153 28.8901 23.549 28.0211 23.835C27.1521 24.121 26.1511 24.264 25.0181 24.264C24.4351 24.264 23.8576 24.209 23.2856 24.099C22.7136 24 22.1691 23.857 21.6521 23.67C21.1351 23.472 20.6511 23.2465 20.2001 22.9935C19.7491 22.7405 19.3586 22.4655 19.0286 22.1685L20.0846 20.469C20.2056 20.271 20.3541 20.117 20.5301 20.007C20.7171 19.897 20.9536 19.842 21.2396 19.842C21.5146 19.842 21.7676 19.9135 21.9986 20.0565C22.2296 20.1885 22.4881 20.337 22.7741 20.502C23.0601 20.656 23.3956 20.8045 23.7806 20.9475C24.1766 21.0795 24.6661 21.1455 25.2491 21.1455C25.6891 21.1455 26.0686 21.096 26.3876 20.997C26.7066 20.898 26.9651 20.766 27.1631 20.601C27.3611 20.425 27.5041 20.2325 27.5921 20.0235C27.6911 19.8035 27.7406 19.578 27.7406 19.347C27.7406 18.973 27.6196 18.6705 27.3776 18.4395C27.1466 18.1975 26.8386 17.9885 26.4536 17.8125C26.0796 17.6365 25.6451 17.477 25.1501 17.334C24.6551 17.191 24.1491 17.0315 23.6321 16.8555C23.1261 16.6795 22.6256 16.4705 22.1306 16.2285C21.6466 15.9865 21.2121 15.684 20.8271 15.321C20.4531 14.947 20.1451 14.4905 19.9031 13.9515C19.6721 13.4125 19.5566 12.758 19.5566 11.988C19.5566 11.284 19.6941 10.6185 19.9691 9.9915C20.2441 9.3535 20.6566 8.7925 21.2066 8.3085C21.7566 7.8245 22.4386 7.4395 23.2526 7.1535C24.0776 6.8675 25.0291 6.7245 26.1071 6.7245C27.3171 6.7245 28.4171 6.9225 29.4071 7.3185C30.3971 7.7145 31.2111 8.2315 31.8491 8.8695L30.8096 10.4865Z" fill="#00A1CD"/>
</svg>
